<svg id="Layer_1" data-name="Layer 1" xmlns="http://www.w3.org/2000/svg" viewBox="0 0 200.86 1066.31"><defs><style>.cls-1,.cls-3,.cls-4,.cls-5,.cls-6{stroke:#000;}.cls-1,.cls-2,.cls-3,.cls-4,.cls-5,.cls-6,.cls-7{stroke-miterlimit:10;}.cls-1,.cls-2,.cls-3,.cls-5,.cls-6{stroke-width:4px;}.cls-1{isolation:isolate;}.cls-2,.cls-5,.cls-7{fill:none;}.cls-2,.cls-7{stroke:red;}.cls-3{fill:#fff;}.cls-4{stroke-width:3px;}</style></defs><rect class="cls-1" x="31.89" y="99.08" width="136" height="865.24"/><line class="cls-2" x1="31.89" y1="883.7" x2="167.89" y2="883.7"/><line class="cls-2" x1="31.85" y1="182.2" x2="167.85" y2="182.2"/><polygon class="cls-3" points="173.63 54.24 156.49 42.51 176.28 31.7 197.68 9.16 192.32 38.29 173.63 54.24"/><polygon class="cls-3" points="28.13 54.62 45.27 42.89 25.47 32.08 4.08 9.53 9.44 38.66 28.13 54.62"/><path class="cls-3" d="M166.91,115.05C191,93.51,197.06,35.45,167,0c-25.36-29.91-64.57-29.75-77.47-29.7C76.78-29.65,38.32-29.49,13,0c-30.7,35.76-25.22,95-.84,115.05,10.07,8.27,20.17,7.22,30.84,21,11,14.17,8.56,26,20,32,2.82,1.48,10.57,1.69,26,2,15.17.35,22.83.49,26-1,10.72-5,10.18-15.4,20-29C146.17,124.49,156.89,124,166.91,115.05Z" transform="translate(10.35 31.7)"/><ellipse class="cls-4" cx="60.89" cy="89.2" rx="29" ry="24.5"/><ellipse class="cls-4" cx="138.89" cy="89.2" rx="29" ry="24.5"/><line class="cls-5" x1="60.89" y1="180.95" x2="138.89" y2="182.72"/><line class="cls-5" x1="78.35" y1="168.7" x2="78.35" y2="188.7"/><line class="cls-5" x1="100.35" y1="171.2" x2="100.35" y2="191.2"/><line class="cls-5" x1="121.35" y1="170.2" x2="121.35" y2="190.2"/><path class="cls-6" d="M96.57,101c2,3.72,3.91,5.46,3.19,7.64a6.19,6.19,0,0,1-5.44,3.7c-1.39,0-1.83-.63-3.82-.61-1.83,0-2.18.57-3.47.58a6.22,6.22,0,0,1-5.42-3.37c-.87-2.24,1.26-4.1,3.52-8.64,4-8,3.69-12.57,5.31-12.6S92,92.59,96.57,101Z" transform="translate(10.35 31.7)"/><path class="cls-6" d="M-256,64" transform="translate(10.35 31.7)"/><circle class="cls-7" cx="99.89" cy="41.08" r="23.62"/><polygon class="cls-7" points="106.23 49.81 93.55 49.81 89.63 37.75 99.89 30.29 110.14 37.75 106.23 49.81"/><polygon class="cls-7" points="121.58 48.04 106.23 49.81 100 63.96 93.55 49.81 78.19 48.35 89.63 37.75 86.3 22.78 99.89 30.29 113.12 22.59 110.14 37.75 121.58 48.04"/><circle class="cls-7" cx="101.02" cy="527.27" r="64.56"/><polygon class="cls-7" points="118.35 551.12 83.69 551.12 72.98 518.16 101.02 497.79 129.06 518.16 118.35 551.12"/><polygon class="cls-7" points="160.32 546.3 118.35 551.12 101.32 589.81 83.69 551.12 41.71 547.14 72.98 518.16 63.87 477.26 101.02 497.79 137.18 476.75 129.06 518.16 160.32 546.3"/><path class="cls-2" d="M481,279" transform="translate(10.35 31.7)"/><polygon class="cls-3" points="173.38 1012.06 156.25 1023.8 176.04 1034.61 197.43 1057.15 192.08 1028.02 173.38 1012.06"/><polygon class="cls-3" points="27.89 1011.69 45.02 1023.42 25.23 1034.23 3.83 1056.78 9.19 1027.65 27.89 1011.69"/><path class="cls-3" d="M166.66,887.86c24.09,21.53,30.16,79.59.1,115-25.36,29.9-64.58,29.74-77.47,29.69s-51.22-.2-76.53-29.69c-30.7-35.76-25.22-95-.85-115,10.08-8.28,20.18-7.22,30.85-21,11-14.17,8.56-26,20-32,2.81-1.48,10.57-1.69,26-2,15.18-.35,22.83-.5,26,1,10.72,5,10.18,15.4,20,29C145.93,878.42,156.65,878.91,166.66,887.86Z" transform="translate(10.35 31.7)"/><ellipse class="cls-4" cx="60.64" cy="977.11" rx="29" ry="24.5"/><ellipse class="cls-4" cx="138.64" cy="977.11" rx="29" ry="24.5"/><line class="cls-5" x1="60.64" y1="885.36" x2="138.64" y2="883.59"/><line class="cls-5" x1="78.11" y1="897.61" x2="78.11" y2="877.61"/><line class="cls-5" x1="100.11" y1="895.11" x2="100.11" y2="875.11"/><line class="cls-5" x1="121.11" y1="896.11" x2="121.11" y2="876.11"/><path class="cls-6" d="M96.32,902c2-3.73,3.92-5.47,3.19-7.64a6.2,6.2,0,0,0-5.44-3.71c-1.38,0-1.83.64-3.82.61-1.82,0-2.17-.57-3.47-.57A6.2,6.2,0,0,0,81.37,894c-.88,2.23,1.25,4.09,3.52,8.64,4,8,3.69,12.56,5.31,12.6S91.79,910.31,96.32,902Z" transform="translate(10.35 31.7)"/><circle class="cls-7" cx="99.64" cy="1025.23" r="23.62"/><polygon class="cls-7" points="105.98 1016.5 93.3 1016.5 89.38 1028.56 99.64 1036.02 109.9 1028.56 105.98 1016.5"/><polygon class="cls-7" points="121.34 1018.26 105.98 1016.5 99.75 1002.35 93.3 1016.5 77.94 1017.96 89.38 1028.56 86.05 1043.53 99.64 1036.02 112.87 1043.71 109.9 1028.56 121.34 1018.26"/><path class="cls-7" d="M21.29,227.5c0,28.56,30.34,51.71,67.76,51.71s67.77-23.15,67.77-51.71" transform="translate(10.35 31.7)"/><path class="cls-7" d="M22,332.21c0-28.56,30.34-51.72,67.76-51.72s67.77,23.16,67.77,51.72" transform="translate(10.35 31.7)"/><line class="cls-7" x1="31.64" y1="312.2" x2="167.89" y2="312.2"/><line class="cls-7" x1="99.02" y1="259.2" x2="100.6" y2="363.91"/><ellipse class="cls-7" cx="98.99" cy="267.09" rx="10.24" ry="7.89"/><path class="cls-7" d="M20.83,763.64c0-28.56,30.34-51.71,67.76-51.71s67.77,23.15,67.77,51.71" transform="translate(10.35 31.7)"/><path class="cls-7" d="M21.54,658.93c0,28.56,30.34,51.71,67.77,51.71s67.76-23.15,67.76-51.71" transform="translate(10.35 31.7)"/><line class="cls-7" x1="31.18" y1="742.34" x2="167.43" y2="742.34"/><line class="cls-7" x1="98.56" y1="795.34" x2="100.14" y2="690.63"/><ellipse class="cls-7" cx="98.53" cy="787.45" rx="10.24" ry="7.89"/><path class="cls-7" d="M21.53,852" transform="translate(10.35 31.7)"/><line class="cls-2" x1="31.85" y1="641.23" x2="167.85" y2="641.23"/><line class="cls-2" x1="168.77" y1="413.31" x2="32.77" y2="413.31"/></svg>