<?xml version="1.0" encoding="utf-8"?>
<!-- Generator: Adobe Illustrator 24.1.1, SVG Export Plug-In . SVG Version: 6.00 Build 0)  -->
<svg version="1.1" id="Combined" xmlns="http://www.w3.org/2000/svg" xmlns:xlink="http://www.w3.org/1999/xlink" x="0px" y="0px"
	 viewBox="0 0 1284 1026.5" style="enable-background:new 0 0 1284 1026.5;" xml:space="preserve">
<style type="text/css">
	.st0{fill:#563A30;stroke:#512823;stroke-miterlimit:10;}
	.st1{fill:#BF0A00;stroke:#000000;stroke-miterlimit:10;}
	.st2{fill:#791314;stroke:#000000;stroke-miterlimit:10;}
	.st3{fill:#48271E;stroke:#000000;stroke-miterlimit:10;}
	.st4{fill:none;stroke:#000000;stroke-miterlimit:10;}
	.st5{fill:#684E48;stroke:#000000;stroke-miterlimit:10;}
</style>
<polygon class="st0" points="1284,1025.3 0.8,1025.8 1.4,0.5 1283.4,0.5 "/>
<path id="Lava" class="st1" d="M7,764.5c2.5-0.7,10.3-15.9,16.1-16.1c12.1-0.4,47.1-18.9,59.3-18.9c42.4,0,208.3,23.2,250.8,23.2
	c128.1,0,165.3-36.7,293.4-36.7c137.9,0,318.4,37.2,456.3,37.2c90.2,0,71.7-1.6,162-1.6c9.9,0,29.2-16.2,39.1-16.2
	c0,0-1,290.1-1,290.1S0.3,1026.5,0.3,1026.5c0-31.7,0.7-64.4,0.7-96.1c0-43.5-0.5-86.9-0.5-130.4c0-8.6,0-17.7,0-26.3
	C0.5,769.7-0.5,766.5,7,764.5z"/>
<path class="st2" d="M436,895.1c106.9-11.3,214.7,9.6,318.1,38.6c8.7,2.4,17.4,5,26.1,7.5c18.9,5.5,37.9,10.9,56.8,16.4
	c-18.8,13.6-42.8,18.3-66,17.7c-23.2-0.6-45.9-6-68.6-10.8c-78.4-16.9-158.1-27.8-238.2-32.7c-40.4-2.5-80.8-3.5-121.3-2.9
	c-20.2,0.3-40.4,0.9-60.6,2c-13.8,0.7-33.9,5.9-46.1-0.4C302.8,919.6,368.9,902.2,436,895.1z"/>
<path class="st2" d="M1205.1,918c13.1-0.4,27.4-1.6,37.2-10.4c1.6-1.4,3.2-3.5,2.4-5.6c-0.8-2.2-3.7-2.6-6.1-2.7
	c-63.2-1.7-126.4-3.3-189.5-5c-18.5-0.5-12.2,7.9-2.3,12.5c13.5,6.3,37,5.5,51.7,7.1C1133.9,917.8,1169.5,919.1,1205.1,918z"/>
<path class="st2" d="M901.3,804.4c-6.4-2.2-14.3,2-16.1,8.5c6.8,13.2,24.4,16.3,39.3,14.9c3.7-0.4,8-1.2,9.8-4.5
	c2.4-4.3-1.4-9.9-6.1-11.6c-4.6-1.7-9.8-1-14.7-1.3c-4.9-0.3-10.5-2.3-12.2-7"/>
<path class="st2" d="M97.6,786.1c-7.4,0-14.9,0-22.2,1.5c-10.3,2.1-19.7,7-29,11.9c-4.2,2.2-9.1,5.6-8.7,10.3
	c0.2,2.3,1.7,4.4,2.2,6.7c0.8,4.2-2.1,8.2-4.9,11.5c12.6-2,25.2-4,37.8-6c12-1.9,90.9-4,93.9-12.2C177,781.4,106.2,786.1,97.6,786.1
	z"/>
<path class="st3" d="M56.4,41.9c-1.2,17.4,1.7,29.8,3.9,47c7.1,55.4,47.6,102.6,52.8,158.2c0.7,7.3,0.8,14.9,3.3,21.8
	s8.3,13.3,15.6,14c7.7-41.1,15.4-82.4,30.6-121.3c2.3-5.8,4.7-11.7,5.3-17.9c0.4-4.5-0.2-9,0.2-13.5c1-12.1,9-22.4,14.9-33
	c9.6-16.9,14.7-36.4,14.7-55.9c-32.5,0.2-64,1.7-96.5,1.6c-9.9,0-15.6-0.3-25.5-0.5C67.1,42.5,63.4,42.7,56.4,41.9z"/>
<path class="st3" d="M1012.1,41.7c10.3,18.8,20.8,38.2,23.9,59.4c1,6.8,1.2,13.8,2.4,20.6c2.1,11.7,7,23,7.7,34.9
	c1.6,25.5-16.2,51.4-7.3,75.3c2.3,6.3,6.3,11.8,9,17.9c11.9,26.8-2.6,57-12.6,84.6c-2.1,5.7-3.7,12.8,0.6,17.1
	c5.5,5.7,15,1.1,21.4-3.6c7.7-5.7,15.4-11.3,23.1-17c17.7-13,36.1-26.8,45.4-46.7c9-19.3,8.6-42.4,19.8-60.4
	c8.8-14,24-23.8,30.3-39.1c5-12.1,3.6-25.7,6.1-38.5c2.7-13.4,9.5-25.5,16.5-37.2c15-25.5,30.7-50.6,47-75.3"/>
<line class="st4" x1="836.6" y1="41.7" x2="1065.4" y2="40.8"/>
<rect x="1" y="997.2" class="st5" width="372.8" height="28.1"/>
<rect x="922.3" y="979.7" class="st5" width="360.7" height="45.5"/>
<polygon class="st5" points="1283.6,1026.1 0.3,1026.5 0.3,997.2 636.1,979.7 1283,1002.5 "/>
<polygon class="st5" points="657.8,1.3 1018.5,1.3 1002.2,65.1 642,49.7 "/>
<polygon class="st5" points="1283.5,0.5 910.2,1.3 910.2,33.5 1283,51.1 "/>
<polygon class="st5" points="709.7,43 1,65.8 0.4,0.5 709.7,1.3 "/>
</svg>
