<svg id="Layer_1" data-name="Layer 1" xmlns="http://www.w3.org/2000/svg" viewBox="0 0 951.19 448.93"><defs><style>.cls-1,.cls-2{fill:#fff;stroke:#000;stroke-miterlimit:10;}.cls-1{stroke-width:4px;}</style></defs><circle class="cls-1" cx="830.09" cy="82.9" r="8.99"/><circle class="cls-1" cx="867.17" cy="113.24" r="8.99"/><path class="cls-1" d="M1029.13,300.91c0,5.45-5,10.22-12.41,12.86a18.2,18.2,0,0,1-28.3,13.68,21.11,21.11,0,0,1-11,3.1c-13,0-23.6-12.07-23.6-27s10.57-27,23.6-27h.42c1.68-11,8.14-19.11,15.87-19.11,9,0,16.29,11.06,16.29,24.72a36.6,36.6,0,0,1-.23,4.1C1020.91,288,1029.13,293.9,1029.13,300.91Z" transform="translate(-101.29 -233.04)"/><path class="cls-2" d="M732.33,339.8c1.55.22,3.13.41,4.74.56q-3.27.17-6.62.28C731.1,340.36,731.73,340.09,732.33,339.8Z" transform="translate(-101.29 -233.04)"/><path class="cls-1" d="M820.48,308.55a8.5,8.5,0,0,1,1.91,5.15c0,8.57-15.5,16.22-39.72,21.19,10.59-4.29,17.25-10.51,17.25-17.43,0-8.6-10.28-16.13-25.6-20.2a8.83,8.83,0,0,0,.88-3.79c0-10.86-21.37-19.91-49.77-22a46.53,46.53,0,0,1,6.47-4.06,9.75,9.75,0,0,1-.52-3.14c0-6.83,7-12.36,15.73-12.36,6.14,0,11.46,2.76,14,6.8a130.49,130.49,0,0,1,17.69-1.18A129,129,0,0,1,796,258.63a19.1,19.1,0,1,1,35.89,12.54c6.1,4.5,9.63,9.84,9.63,15.56C841.49,295.41,833.37,303.2,820.48,308.55Z" transform="translate(-101.29 -233.04)"/><path class="cls-1" d="M593.18,265.66c0,9.16-7.8,16.58-17.42,16.58s-17.41-7.42-17.41-16.58a16.29,16.29,0,0,1,.2-2.53h-.2c-14.27,0-25.84-6.28-25.84-14S544.08,235,558.35,235s25.84,6.29,25.84,14.05a7.43,7.43,0,0,1-.25,1.94A16.47,16.47,0,0,1,593.18,265.66Z" transform="translate(-101.29 -233.04)"/><path class="cls-2" d="M356.33,408.26a40.84,40.84,0,0,1-6.28,2.83A49.29,49.29,0,0,1,356.33,408.26Z" transform="translate(-101.29 -233.04)"/><path class="cls-2" d="M356.33,408.26" transform="translate(-101.29 -233.04)"/><path class="cls-2" d="M956.46,583.19a13,13,0,0,1-1.39-.23c.37-.45.72-.9,1-1.37A5.53,5.53,0,0,0,956.46,583.19Z" transform="translate(-101.29 -233.04)"/><path class="cls-2" d="M956.46,583.19a13,13,0,0,1-1.39-.23c.37-.45.72-.9,1-1.37A5.53,5.53,0,0,0,956.46,583.19Z" transform="translate(-101.29 -233.04)"/><path class="cls-1" d="M991.49,581.25c0-4.91-6.68-9-15.34-9.6a18.54,18.54,0,0,0-24.47-23.9,6.94,6.94,0,0,0-4.29-1.47,7,7,0,0,0-6.41,4.16,60.22,60.22,0,0,0-22.52-4.16c-2,0-4,.09-6,.27a228.61,228.61,0,0,0,6.55-55.9c0-1.14,0-2.28,0-3.41,27.47-1,49.45-27.54,49.45-60.08,0-32-21.23-58.13-48-60a35.4,35.4,0,1,0-64.17,29.22c-5,6.13-9.36,14.51-13,24.6-15.81-6.06-44.65-10.11-77.61-10.11-49.4,0-89.55,9.11-90.42,20.41-25.52,3.81-43.82,9.67-49.68,16.45-47.1,8.24-78.43,22.87-78.43,39.55,0,6.67,5,13,14,18.74-58.87,7.21-98.29,20.4-98.29,35.46,0,5.68,5.6,11.09,15.73,16C453.43,561.31,434,566,422.31,571.3,370.24,582.53,337,599.61,337,618.74,337,652.56,440.88,680,569,680s232-27.41,232-61.23a19.12,19.12,0,0,0-3.49-10.64c31.56-4.79,54.19-11,63.69-17.94.65.56,1.3,1.09,2,1.58a7.23,7.23,0,0,0-.37,2.29,7.31,7.31,0,0,0,14.28,2.19c4.67-.35,9.15-2.5,13.33-6.19l.42.24A6.23,6.23,0,1,0,901,595.1q0-.33,0-.66a62.74,62.74,0,0,0,17.45,2.4q2,0,3.93-.12v.12c0,7.45,4,13.49,9,13.49,2.93,0,5.53-2.1,7.16-5.35a25.34,25.34,0,0,0,15.88,5.35c12.72,0,23-8.68,23-19.39a1.48,1.48,0,0,0,0-.21C985.47,589.82,991.49,585.92,991.49,581.25Z" transform="translate(-101.29 -233.04)"/><ellipse class="cls-1" cx="910.43" cy="343.86" rx="1.69" ry="5.34"/><circle class="cls-1" cx="941.89" cy="356.5" r="7.3"/><circle class="cls-1" cx="923.21" cy="336.41" r="4.63"/><ellipse class="cls-1" cx="905.37" cy="360.85" rx="6.74" ry="2.95"/><ellipse class="cls-1" cx="787.96" cy="380.66" rx="11.8" ry="3.37"/><path class="cls-2" d="M356.33,408.26" transform="translate(-101.29 -233.04)"/><path class="cls-1" d="M523.43,288.74c2.24,1.8,3.46,3.73,3.46,5.74,0,7.94-19.06,14.67-45.42,17-3.73,7.58-29,13.45-59.64,13.45h-.47a21.61,21.61,0,0,1,.47,4.5c0,14.27-13.46,25.84-30.05,25.84a34.73,34.73,0,0,1-8-.93,45.62,45.62,0,0,1-9.31.93A47.11,47.11,0,0,1,369,355a34,34,0,0,1-8.34,17.18c8.43,4,13.4,9,13.4,14.31a8.59,8.59,0,0,1-.3,2.25c11.55.15,21,5.85,22.55,13.22.54,0,1.08,0,1.63,0,31.49,0,57,9,57,20.08s-25.53,20.09-57,20.09a150.6,150.6,0,0,1-24-1.86,11.66,11.66,0,0,1,.15,1.86c0,11.17-15.37,21.28-40.19,28.55,7.58,4.32,12.1,9.77,12.1,15.69,0,14-25.41,25.41-56.74,25.41s-56.74-11.38-56.74-25.41a11.79,11.79,0,0,1,.74-4.1c-72.26-.85-130-18.5-130-40.14,0-15.33,28.94-28.65,71.5-35.42-1.93-1.52-3-3.11-3-4.75,0-8.15,25.34-15.11,61-17.86,3.49-12.37,33.69-22,70.43-22,4,0,7.9.11,11.7.33a36,36,0,0,1-2.71-13.81c0-16.7,11-30.46,25.27-32.36,2.24-5.27,11.2-9.21,21.92-9.21,1,0,2,0,3,.11,3.17-5,15.81-9.23,33.09-11.38a5,5,0,0,1-.15-1.21c0-8.75,23.17-16,53.75-17.56,4.05-6.43,20.95-11.26,41.19-11.26,23.27,0,42.14,6.38,42.14,14.25C532.51,283.24,529.11,286.31,523.43,288.74Z" transform="translate(-101.29 -233.04)"/><path class="cls-1" d="M799.92,317.46c0,6.92-6.66,13.14-17.25,17.43a307.35,307.35,0,0,1-45.6,5.47c-1.61-.15-3.19-.34-4.74-.56-.6.29-1.23.56-1.88.84-8.36,3.45-20.66,5.64-34.38,5.64-19.55,0-36.22-4.43-42.7-10.67C627.09,330.66,610,322.69,610,313.7c0-8.67,15.85-16.39,40.53-21.36,1.63-11.88,28.89-21.34,62.28-21.34,4.31,0,8.52.16,12.59.46,28.4,2.1,49.77,11.15,49.77,22a8.83,8.83,0,0,1-.88,3.79C789.64,301.33,799.92,308.86,799.92,317.46Z" transform="translate(-101.29 -233.04)"/><path class="cls-2" d="M782.67,334.89c-9.2,3.73-21.35,6-34.68,6-3.75,0-7.4-.18-10.92-.52A307.35,307.35,0,0,0,782.67,334.89Z" transform="translate(-101.29 -233.04)"/><path class="cls-1" d="M370.71,440.66c0,13-22.89,23.6-51.13,23.6a111.4,111.4,0,0,1-12-.65c-14,5.19-35.38,8.51-59.31,8.51-42.2,0-76.41-10.31-76.41-23,0-12.15,31.21-22.1,70.79-23v-.06c0-13,17.23-23.6,38.48-23.6,16.09,0,29.87,6.05,35.62,14.65.95,0,1.9,0,2.86,0C347.82,417.07,370.71,427.63,370.71,440.66Z" transform="translate(-101.29 -233.04)"/><path class="cls-1" d="M901,546.7c0,15.13-33.7,27.39-75.28,27.39-31,0-57.69-6.83-69.2-16.59-16.15,9.76-53.55,16.59-97.09,16.59-58.33,0-105.62-12.26-105.62-27.39s47.29-27.39,105.62-27.39c9.17,0,18.06.3,26.54.87-4.78-4.21-7.44-8.88-7.44-13.79,0-18.92,39.49-34.27,88.21-34.27S855,487.47,855,506.39c0,5-2.77,9.77-7.74,14.05C878.35,523.81,901,534.29,901,546.7Z" transform="translate(-101.29 -233.04)"/></svg>