<svg id="Layer_1" data-name="Layer 1" xmlns="http://www.w3.org/2000/svg" viewBox="0 0 889.39 700.63"><defs><style>.cls-1{fill:#fff;stroke:#000;stroke-miterlimit:10;stroke-width:4px;}</style></defs><path class="cls-1" d="M1069.17,723.82A85.38,85.38,0,0,1,921.9,782.65a89.51,89.51,0,0,1-67.09-.39C832,808.1,794.59,824.94,752.32,824.94c-28.41,0-54.62-7.61-75.68-20.44A122.9,122.9,0,0,1,548.17,809a259.83,259.83,0,0,1-50,4.74c-38.1,0-73-7.9-99.83-21a90.06,90.06,0,0,1-51.67,16.51c-55.23,0-100-51.44-100-114.89,0-38.39,16.39-72.39,41.58-93.25v-.29c0-31.21,31.87-58.58,79.78-73.95,0-.44,0-.89,0-1.33a115.72,115.72,0,0,1,21.79-68.26c-10.4-11.52-16.17-24.25-16.17-37.64a46.68,46.68,0,0,1,1.18-10.41l-.62,0c-9.62,0-17.41-15.34-17.41-34.27,0-10.82,2.54-20.46,6.52-26.74a19.71,19.71,0,0,1-6.52-14.27c0-12.41,12.82-22.47,28.65-22.47a35.57,35.57,0,0,1,9.54,1.28c4.2-4.37,9.22-6.9,14.61-6.9,14.9,0,27,19.37,27,43.26,0,.4,0,.79,0,1.18a260.76,260.76,0,0,1,43.06-14.52,100.08,100.08,0,0,1,10.71-14.09,124.79,124.79,0,0,1-18.92-66.39c0-67.64,53.07-122.48,118.54-122.48a115.65,115.65,0,0,1,73.84,26.66c13-10.56,27.81-16.54,43.58-16.54,43.65,0,80.21,45.91,89.72,107.54,17-19.29,40.13-31.14,65.61-31.14,52.28,0,94.67,49.93,94.67,111.52,0,36-14.52,68.09-37,88.48a212.34,212.34,0,0,1,12.11,56.92c7.44-9.08,15.92-14.22,24.93-14.22h0c.36-13.75,7.38-24.72,16-24.72,6.46,0,12,6.18,14.55,15.09a8.4,8.4,0,0,1,4.83-1.61c8.07,0,14.61,12.83,14.61,28.65,0,12-3.77,22.3-9.11,26.56,7.79,21.38,12.48,49,12.48,79.06a260.76,260.76,0,0,1-5.84,56A85.42,85.42,0,0,1,1069.17,723.82Z" transform="translate(-181.78 -130.8)"/><path class="cls-1" d="M958.79,733.24a57.13,57.13,0,0,1,6.86,27.09c0,35.06-32.19,63.48-71.91,63.48-22.28,0-42.19-8.95-55.38-23a30,30,0,0,1-9.79,1.64c-23,0-41.57-26.16-41.57-58.42a74.81,74.81,0,0,1,8.38-35.21,60.68,60.68,0,1,1,105.39-50.17c36,.58,64.88,23.49,64.88,51.67A42.42,42.42,0,0,1,958.79,733.24Z" transform="translate(-181.78 -130.8)"/><path class="cls-1" d="M811.42,739.25A85.27,85.27,0,0,1,816,767.07c0,34.44-19.37,62.36-43.26,62.36a33.23,33.23,0,0,1-20.76-7.65c-11.67,4.83-25.81,7.65-41,7.65-40,0-72.47-19.5-72.47-43.54,0-16.94,16.11-31.62,39.62-38.82a38.59,38.59,0,0,1-.29-4.72,37.64,37.64,0,0,1,37.64-37.64h.05c0-.56-.05-1.12-.05-1.69,0-25.13,26.78-45.5,59.83-45.5S835,677.89,835,703C835,717.8,825.77,730.94,811.42,739.25Z" transform="translate(-181.78 -130.8)"/><path class="cls-1" d="M392.77,645.94c0,21.91-24.6,39.67-54.95,39.67a74.85,74.85,0,0,1-16.51-1.82c-4.68,20.08-33.53,35.54-68.43,35.54-38.16,0-69.1-18.49-69.1-41.29,0-18.64,20.66-34.39,49-39.52,3.78-18.59,21.89-32.67,43.65-32.67h.25a36.65,36.65,0,0,1-.25-4.22,35.11,35.11,0,0,1,70.22,0,35.84,35.84,0,0,1-.37,5.11C372.63,609.69,392.77,626.11,392.77,645.94Z" transform="translate(-181.78 -130.8)"/><path class="cls-1" d="M530.13,360.6c0,29-16.35,52.54-36.51,52.54-7.82,0-15.08-3.54-21-9.57A50.59,50.59,0,0,1,454.29,407c-25.75,0-46.63-19-46.63-42.42,0-15.88,9.6-29.73,23.82-37A46.56,46.56,0,0,1,426.76,307c0-23.27,16.6-42.14,37.08-42.14s37.08,18.87,37.08,42.14c0,.72,0,1.44-.05,2.15C517.56,313.94,530.13,335.16,530.13,360.6Z" transform="translate(-181.78 -130.8)"/><path class="cls-1" d="M519.18,779.15A37.37,37.37,0,0,1,468.29,814c-8,6.09-19,9.83-31,9.83-24.58,0-44.52-15.6-44.52-34.83,0-13.73,10.16-25.61,24.92-31.28a29.29,29.29,0,0,1-8.06-19.85c0-18.3,18.11-33.14,40.45-33.14s40.45,14.84,40.45,33.14a27,27,0,0,1-.44,4.86A37.37,37.37,0,0,1,519.18,779.15Z" transform="translate(-181.78 -130.8)"/><path class="cls-1" d="M872,274.09C872,309.92,841.8,339,804.56,339a68,68,0,0,1-56.93-30.14,38.32,38.32,0,0,1-55.3.73c-6.75,6.39-15,10.15-23.91,10.15C645.56,319.72,627,295,627,264.46s18.53-55.26,41.39-55.26a31.2,31.2,0,0,1,5.82.55c0-.18,0-.37,0-.55,0-28.85,28.17-52.25,62.92-52.25s62.92,23.4,62.92,52.25v.15c1.49-.1,3-.15,4.49-.15C841.8,209.2,872,238.25,872,274.09Z" transform="translate(-181.78 -130.8)"/></svg>