<svg id="Layer_1" data-name="Layer 1" xmlns="http://www.w3.org/2000/svg" viewBox="0 0 871.79 542.57"><defs><style>.cls-1{fill:#fff;stroke:#000;stroke-miterlimit:10;}</style></defs><title>cloud2</title><path class="cls-1" d="M1089.61,718.88c0,40-87,72.47-194.39,72.47-64.21,0-121.15-11.61-156.55-29.51A194.59,194.59,0,0,1,543.28,768a411.58,411.58,0,0,1-90.75,9.84c-129.08,0-233.71-56.35-233.71-125.85,0-46,45.87-86.26,114.33-108.2A174.72,174.72,0,0,1,593,310.62c27.35-36.63,74.73-60.84,128.61-60.84,84.7,0,153.37,59.86,153.37,133.7a118.36,118.36,0,0,1-10.65,49q3.9-.16,7.84-.16c85.95,0,155.62,57.72,155.62,128.93,0,36.27-18.07,69-47.17,92.47C1045.18,665.54,1089.61,690.28,1089.61,718.88Z" transform="translate(-218.32 -249.28)"/><path class="cls-1" d="M912.08,641.34c0,53.06-47,96.07-105.06,96.07-38.16,0-71.56-18.6-90-46.43-21,12-51,19.47-84.19,19.47-28,0-53.73-5.32-73.7-14.19-16.32,18.8-42.91,31-72.93,31-49.65,0-89.89-33.45-89.89-74.72,0-38.92,35.81-70.9,81.55-74.39a82.33,82.33,0,0,1-.65-10.36,81.42,81.42,0,0,1,92.81-80.57c20.6-31.27,57.38-52.09,99.32-52.09,64.54,0,116.86,49.29,116.86,110.11q0,.94,0,1.89A114.65,114.65,0,0,1,807,545.28C865,545.28,912.08,588.29,912.08,641.34Z" transform="translate(-218.32 -249.28)"/><path class="cls-1" d="M602,484.87a65.61,65.61,0,0,1,4.49,23.89c0,39.72-35.47,71.92-79.22,71.92a84.77,84.77,0,0,1-42.46-11.2c-8,6.82-20.49,11.2-34.5,11.2-24.21,0-43.82-13.08-43.82-29.22,0-7.69,4.46-14.7,11.76-19.91A37.52,37.52,0,0,1,412.07,511c0-22.34,19.87-40.45,44.39-40.45,1.2,0,2.39,0,3.57.13,13-18.93,35.51-32,61.44-33.65,3.55-22.23,30.18-39.51,62.51-39.51,34.75,0,62.93,20,62.93,44.59C646.91,462.32,628,479.38,602,484.87Z" transform="translate(-218.32 -249.28)"/></svg>