<svg id="Head_Ears" data-name="Head Ears" xmlns="http://www.w3.org/2000/svg" viewBox="0 0 263.93 272.57"><defs><style>.cls-1{fill:red;}.cls-1,.cls-2{stroke:#000;stroke-miterlimit:10;stroke-width:4px;}</style></defs><path class="cls-1" d="M209.15,113.85c-.5-16.4-5.88-19.37-5-40,1-24,8.65-28.81,6-39.54-6.25-25.23-57.77-35.57-92.5-35.45C81.48-1,31.17,10.56,26.26,34.31c-2.4,11.64,8,17,8.89,39.54.75,19.1-6.42,22.11-8,39C24.92,136.64,38.9,139,62.08,196.7,71.9,221.15,75.19,226.79,86,234.91c3.69,2.78,15.29,11.28,31,11.09,13.65-.17,25.57-6.81,31.06-9.86a29.66,29.66,0,0,0,3.82-2.28c13.54-10.32,19.08-28.8,20.05-32.38C183.66,158.27,210.26,150.8,209.15,113.85Z" transform="translate(11.79 24.57)"/><ellipse class="cls-2" cx="79.47" cy="75.85" rx="22.5" ry="33.32" transform="translate(-18.57 102.98) rotate(-45)"/><ellipse class="cls-2" cx="160.65" cy="75.85" rx="33.32" ry="22.5" transform="translate(5.2 160.38) rotate(-45)"/><path class="cls-2" d="M161.93,184.18c-4,15.18-17.85,48.26-43.53,48.3-24.73,0-39.39-30.57-43.54-48.3C71.15,168.33,69.25,144.5,80.5,139c9.25-4.53,17.52,7.91,37.9,8.36s29-11.83,37.9-6.81C167,146.59,165.64,170.08,161.93,184.18Z" transform="translate(11.79 24.57)"/><path class="cls-1" d="M118.93,164.53c-.57,4.11-2.55,9.81-4.86,9.81s-4.28-5.7-4.85-9.81c-1.1-7.91,2-17,4.85-17S120,156.62,118.93,164.53Z" transform="translate(11.79 24.57)"/><path class="cls-1" d="M129.1,164.53c-.57,4.11-2.55,9.81-4.86,9.81s-4.29-5.7-4.86-9.81c-1.1-7.91,2.05-17,4.86-17S130.2,156.62,129.1,164.53Z" transform="translate(11.79 24.57)"/><path class="cls-1" d="M107.86,163.49c.14,1.34,1.83,17.27-1.17,18-2.38.57-7.89-8.44-8.55-18-.58-8.32,2.53-17.07,4.86-17C106.06,146.57,107.7,162,107.86,163.49Z" transform="translate(11.79 24.57)"/><path class="cls-1" d="M130.31,163.49c-.14,1.34-1.83,17.27,1.17,18,2.38.57,7.89-8.44,8.55-18,.58-8.32-2.54-17.07-4.86-17C132.11,146.57,130.47,162,130.31,163.49Z" transform="translate(11.79 24.57)"/><path class="cls-1" d="M150.43,159.32c-.57,4.11-2.55,9.81-4.86,9.81s-4.29-5.7-4.86-9.81c-1.09-7.92,2-17,4.86-17S151.53,151.4,150.43,159.32Z" transform="translate(11.79 24.57)"/><path class="cls-1" d="M96.13,159.32c-.57,4.11-2.55,9.81-4.85,9.81s-4.29-5.7-4.86-9.81c-1.1-7.92,2-17,4.86-17S97.23,151.4,96.13,159.32Z" transform="translate(11.79 24.57)"/><path class="cls-1" d="M159.2,152.3c-.41,2.7-1.82,6.43-3.46,6.43s-3.05-3.73-3.46-6.43c-.78-5.19,1.46-11.16,3.46-11.16S160,147.11,159.2,152.3Z" transform="translate(11.79 24.57)"/><path class="cls-1" d="M84.32,152.3c-.4,2.7-1.81,6.43-3.46,6.43s-3-3.73-3.45-6.43c-.79-5.19,1.45-11.16,3.45-11.16S85.11,147.11,84.32,152.3Z" transform="translate(11.79 24.57)"/><path class="cls-1" d="M118.93,214.1c-.57-4.12-2.55-9.82-4.86-9.82s-4.28,5.7-4.85,9.82c-1.1,7.91,2,17,4.85,17S120,222,118.93,214.1Z" transform="translate(11.79 24.57)"/><path class="cls-1" d="M129.1,214.1c-.57-4.12-2.55-9.82-4.86-9.82s-4.29,5.7-4.86,9.82c-1.1,7.91,2.05,17,4.86,17S130.2,222,129.1,214.1Z" transform="translate(11.79 24.57)"/><path class="cls-1" d="M107.86,208.46c.14-1.33,1.83-17.26-1.17-18-2.38-.57-7.89,8.44-8.55,18-.58,8.33,2.53,17.07,4.86,17C106.06,225.38,107.7,210,107.86,208.46Z" transform="translate(11.79 24.57)"/><path class="cls-1" d="M130.31,208.46c-.14-1.33-1.83-17.26,1.17-18,2.38-.57,7.89,8.44,8.55,18,.58,8.33-2.54,17.07-4.86,17C132.11,225.38,130.47,210,130.31,208.46Z" transform="translate(11.79 24.57)"/><path class="cls-1" d="M150.43,197.87c-.57-4.12-2.55-9.81-4.86-9.81s-4.29,5.69-4.86,9.81c-1.09,7.91,2,17,4.86,17S151.53,205.78,150.43,197.87Z" transform="translate(11.79 24.57)"/><path class="cls-1" d="M96.13,197.87c-.57-4.12-2.55-9.81-4.85-9.81s-4.29,5.69-4.86,9.81c-1.1,7.91,2,17,4.86,17S97.23,205.78,96.13,197.87Z" transform="translate(11.79 24.57)"/><path class="cls-1" d="M159.2,184.87c-.41-2.7-1.82-6.44-3.46-6.44s-3.05,3.74-3.46,6.44c-.78,5.19,1.46,11.15,3.46,11.15S160,190.06,159.2,184.87Z" transform="translate(11.79 24.57)"/><path class="cls-1" d="M84.32,184.87c-.4-2.7-1.81-6.44-3.46-6.44s-3,3.74-3.45,6.44c-.79,5.19,1.45,11.15,3.45,11.15S85.11,190.06,84.32,184.87Z" transform="translate(11.79 24.57)"/><path class="cls-2" d="M127.33,109.59" transform="translate(11.79 24.57)"/><ellipse class="cls-1" cx="86.19" cy="82.58" rx="13.46" ry="19.93" transform="translate(-21.36 109.71) rotate(-45)"/><ellipse class="cls-1" cx="151.19" cy="82.58" rx="19.93" ry="13.46" transform="translate(-2.32 155.67) rotate(-45)"/><path class="cls-2" d="M208.22,24.35c4.59-5.91,9.44-8.88,10.4-16,1.86-14-13.8-24-10.14-29,2.64-3.61,12.79-1.16,17.87.77a37.78,37.78,0,0,1,18.4,15.53c15.05,24.63-5.88,58.59-8.53,62.89C230.31,68.06,214.91,89,206.08,86,195.82,82.44,191.75,45.54,208.22,24.35Z" transform="translate(11.79 24.57)"/><path class="cls-2" d="M32.14,24.35c-4.59-5.91-9.44-8.88-10.4-16-1.86-14,13.8-24,10.14-29-2.64-3.61-12.79-1.16-17.87.77A37.78,37.78,0,0,0-4.39-4.42c-15,24.63,5.88,58.59,8.53,62.89C10.05,68.06,25.45,89,34.28,86,44.54,82.44,48.61,45.54,32.14,24.35Z" transform="translate(11.79 24.57)"/></svg>