<svg id="Head_Ears" data-name="Head Ears" xmlns="http://www.w3.org/2000/svg" viewBox="0 0 232.28 238.77"><defs><style>.cls-1,.cls-2,.cls-3{stroke:#000;}.cls-1,.cls-3{stroke-miterlimit:10;}.cls-2,.cls-3{fill:#fff;}.cls-2{stroke-miterlimit:10;stroke-width:4px;}</style></defs><circle class="cls-1" cx="116.14" cy="122.63" r="115.64"/><ellipse class="cls-2" cx="184.93" cy="35.63" rx="27.07" ry="48.47" transform="translate(52.31 170.85) rotate(-56.14)"/><ellipse class="cls-2" cx="53.13" cy="35.64" rx="48.47" ry="27.07" transform="translate(-10.85 37.15) rotate(-33.86)"/><path class="cls-3" d="M188.87,112a61.78,61.78,0,0,1-6.79,25.91q-10.23,1.83-20.81,3.54-8.06,1.29-16,2.45-2.06,22.78-4.12,45.52a44.32,44.32,0,0,1-50.31,0Q89,166.34,87,143.26c-5.28-.44-10.81-1-16.57-1.84-7.15-1-13.89-2.21-20.2-3.54a62,62,0,0,1,0-56.44c20.16-1.59,41.88-2.57,65-2.59,23.81,0,46.15,1,66.83,2.59A62.19,62.19,0,0,1,188.87,112Z" transform="translate(0 1.51)"/></svg>