<svg id="Head_Ears" data-name="Head + Ears" xmlns="http://www.w3.org/2000/svg" viewBox="0 0 232.29 237.27"><defs><style>.cls-1,.cls-2{stroke:#000;stroke-miterlimit:10;}.cls-2{fill:#fff;}</style></defs><title>forwardBlackHead</title><circle class="cls-1" cx="116.14" cy="121.12" r="115.64"/><ellipse class="cls-2" cx="212.74" cy="145.22" rx="27.07" ry="48.47" transform="translate(-54.19 131.38) rotate(-56.14)"/><ellipse class="cls-2" cx="80.93" cy="145.22" rx="48.47" ry="27.07" transform="translate(-94.99 -39.86) rotate(-33.86)"/><path class="cls-2" d="M216.67,221.58a61.87,61.87,0,0,1-6.79,25.91q-10.23,1.83-20.81,3.54-8.06,1.29-15.95,2.45Q171.07,276.27,169,299a44.31,44.31,0,0,1-50.31,0q-1.92-23.08-3.85-46.16c-5.28-.44-10.81-1-16.57-1.84-7.15-1-13.89-2.21-20.2-3.54a62,62,0,0,1,0-56.44c20.16-1.59,41.88-2.57,65-2.59,23.81,0,46.15,1,66.83,2.59A62.2,62.2,0,0,1,216.67,221.58Z" transform="translate(-27.8 -109.58)"/></svg>