<?xml version="1.0" encoding="utf-8"?>
<!-- Generator: Adobe Illustrator 16.0.0, SVG Export Plug-In . SVG Version: 6.00 Build 0)  -->
<!DOCTYPE svg PUBLIC "-//W3C//DTD SVG 1.1//EN" "http://www.w3.org/Graphics/SVG/1.1/DTD/svg11.dtd">
<svg version="1.1" xmlns="http://www.w3.org/2000/svg" xmlns:xlink="http://www.w3.org/1999/xlink" x="0px" y="0px" width="612px"
	 height="792px" viewBox="0 0 612 792" enable-background="new 0 0 612 792" xml:space="preserve">
<g id="Layer_3" display="none">
	<rect display="inline" fill="#3F3F3F" width="612" height="792"/>
</g>
<g id="Layer_1" display="none">
	<path display="inline" fill="#FFFFFF" d="M356.568,267.601l-69.615-26.956l-2.13,5.509c-4.554,8.882-13.781,14.972-24.448,14.972
		s-19.895-6.09-24.448-14.972l-2.13-5.509l-69.615,26.956l14.744,36.327l35.824-11.178v95.645H306V292.75l35.824,11.178
		L356.568,267.601z"/>
</g>
<g id="Layer_2">
	<path fill="#FFFFFF" d="M407.516,256.923c1.223-4.915,2.086-9.972,2.563-15.142l-27.137-11.706
		c-0.121-3.88-0.537-7.684-1.234-11.39l23.287-19.331c-1.594-4.616-3.51-9.082-5.727-13.368l-29.131,4.82
		c-2.465-3.599-5.244-6.966-8.293-10.066l9.07-28.634c-3.674-2.824-7.547-5.402-11.596-7.708l-21.96,19.857
		c-4.279-1.762-8.757-3.141-13.397-4.076l-7.781-28.739c-2.264-0.151-4.545-0.236-6.847-0.236s-4.583,0.084-6.847,0.236
		l-7.782,28.739c-4.64,0.935-9.117,2.313-13.397,4.076l-21.959-19.857c-4.049,2.305-7.921,4.884-11.597,7.707l9.071,28.635
		c-3.05,3.101-5.828,6.467-8.294,10.066l-29.131-4.82c-2.216,4.286-4.132,8.751-5.727,13.368l23.288,19.331
		c-0.698,3.707-1.114,7.51-1.234,11.39l-27.138,11.706c0.476,5.17,1.34,10.227,2.564,15.142l30.124,3.682
		c1.256,3.026,2.715,5.944,4.347,8.75l-16.569,24.621c3.275,4.264,6.88,8.26,10.781,11.948l27.296-13.171
		c2.311,1.619,4.709,3.121,7.204,4.471l-0.633,29.89c5.109,1.923,10.414,3.445,15.877,4.526l15.755-25.695
		c1.325,0.071,2.657,0.112,4,0.112s2.675-0.041,4-0.112l15.755,25.695c5.464-1.082,10.769-2.604,15.877-4.526l-0.633-29.89
		c2.496-1.35,4.894-2.852,7.205-4.471l27.295,13.171c3.9-3.688,7.506-7.685,10.781-11.948l-16.568-24.621
		c1.631-2.806,3.09-5.724,4.346-8.75L407.516,256.923z M309.332,264.667c-18.359,0-33.243-14.883-33.243-33.243
		s14.884-33.243,33.243-33.243c18.36,0,33.244,14.883,33.244,33.243S327.692,264.667,309.332,264.667z"/>
</g>
</svg>
