<?xml version="1.0" encoding="utf-8"?>
<!-- Generator: Adobe Illustrator 16.0.0, SVG Export Plug-In . SVG Version: 6.00 Build 0)  -->
<!DOCTYPE svg PUBLIC "-//W3C//DTD SVG 1.1//EN" "http://www.w3.org/Graphics/SVG/1.1/DTD/svg11.dtd">
<svg version="1.1" xmlns="http://www.w3.org/2000/svg" xmlns:xlink="http://www.w3.org/1999/xlink" x="0px" y="0px" width="612px"
	 height="792px" viewBox="0 0 612 792" enable-background="new 0 0 612 792" xml:space="preserve">
<g id="Layer_1" display="none">
	<rect display="inline" fill="#F58C8E" stroke="#000000" stroke-miterlimit="10" width="612" height="792"/>
</g>
<g id="Layer_2">
	<rect x="194.677" y="263.807" fill="#FFFFFF" width="14.194" height="46.452"/>
	<rect x="210.677" y="252" fill="#FFFFFF" width="14.194" height="58.258"/>
	<rect x="226.538" y="272.333" fill="#FFFFFF" width="14.194" height="37.925"/>
	<g>
		<path d="M201.248,265.894l2.947-0.006c1.043-0.004,1.484,0.393,1.324,1.189l-0.34,1.717l-4.389,2.367h3.932l-0.229,1.178
			l-6.264-0.012l0.352-1.752l4.418-2.643l0.188-0.885l-1.57,0.023l-0.117,0.574l-2.35,0.012l0.129-0.604
			C199.436,266.285,200.092,265.898,201.248,265.894z"/>
	</g>
	<g>
		<path d="M216.739,253.888h2.883l-1.289,6.439h-2.35l1.061-5.285l-0.604-0.012L216.739,253.888z"/>
	</g>
	<g>
		<path d="M236.889,273.934l-0.24,1.172l-1.4,1.471l1.096-0.006l-0.504,2.643c-0.16,0.781-0.928,1.17-2.303,1.166h-3.246l0.229-1.16
			l1.746,0.012c0.82,0.008,1.271-0.191,1.354-0.598l0.193-0.967l-2.971-0.012l0.217-1.096h1.893l1.441-1.447l-3.041,0.012
			l0.246-1.172L236.889,273.934z"/>
	</g>
	<g>
	</g>
	<g>
	</g>
	<g>
	</g>
	<g>
	</g>
	<g>
	</g>
	<g>
	</g>
</g>
</svg>
