<?xml version="1.0" encoding="utf-8"?>
<!-- Generator: Adobe Illustrator 23.0.3, SVG Export Plug-In . SVG Version: 6.00 Build 0)  -->
<svg version="1.1" id="Layer_1" xmlns="http://www.w3.org/2000/svg" xmlns:xlink="http://www.w3.org/1999/xlink" x="0px" y="0px"
	 viewBox="0 0 612 792" style="enable-background:new 0 0 612 792;" xml:space="preserve">
<style type="text/css">
	.st0{fill:#FFFFFF;}
</style>
<g>
	<path class="st0" d="M120.3,343.1h-15.2c-6.6,0-12-5.4-12-12V176.7c0-6.6,5.4-12,12-12h15.2c6.6,0,12,5.4,12,12v154.4
		C132.3,337.7,126.9,343.1,120.3,343.1z"/>
	<path class="st0" d="M198.1,343.1h-15.2c-6.6,0-12-5.4-12-12V176.7c0-6.6,5.4-12,12-12h15.2c6.6,0,12,5.4,12,12v154.4
		C210.1,337.7,204.7,343.1,198.1,343.1z"/>
</g>
</svg>
