<?xml version="1.0" encoding="utf-8"?>
<!-- Generator: Adobe Illustrator 16.0.0, SVG Export Plug-In . SVG Version: 6.00 Build 0)  -->
<!DOCTYPE svg PUBLIC "-//W3C//DTD SVG 1.1//EN" "http://www.w3.org/Graphics/SVG/1.1/DTD/svg11.dtd">
<svg version="1.1" xmlns="http://www.w3.org/2000/svg" xmlns:xlink="http://www.w3.org/1999/xlink" x="0px" y="0px" width="612px"
	 height="792px" viewBox="0 0 612 792" enable-background="new 0 0 612 792" xml:space="preserve">
<g id="Layer_1" display="none">
	<rect display="inline" fill="#6D5C5C" stroke="#000000" stroke-miterlimit="10" width="612" height="792"/>
</g>
<g id="Layer_2" display="none">
	
		<rect x="248.225" y="191.548" transform="matrix(-0.7071 -0.7071 0.7071 -0.7071 261.7907 607.0164)" display="inline" fill="#FFFFFF" width="16.774" height="115.484"/>
	
		<rect x="248.257" y="261.36" transform="matrix(0.7071 -0.7071 0.7071 0.7071 -150.4701 274.9377)" display="inline" fill="#FFFFFF" width="16.774" height="115.484"/>
</g>
<g id="Layer_3" display="none">
	<path display="inline" fill="#FFFFFF" d="M303.404,483.833h-4.5v9h4.5c28.397,0,51.5,23.103,51.5,51.5s-23.103,51.5-51.5,51.5
		c-28.397,0-51.5-23.103-51.5-51.5c0-9.251,2.459-18.247,7.125-26.147l11.866,7.59l-4.206-27.738l-26.944,7.813l11.698,7.482
		c-5.592,9.354-8.539,20.027-8.539,31.001c0,33.359,27.14,60.5,60.5,60.5c33.359,0,60.5-27.141,60.5-60.5
		S336.764,483.833,303.404,483.833z"/>
</g>
<g id="Layer_4">
	<polygon fill="#FFFFFF" points="60.019,186.373 223.98,265.981 60.019,345.589 	"/>
</g>
</svg>
