<svg id="Layer_1" data-name="Layer 1" xmlns="http://www.w3.org/2000/svg" viewBox="0 0 159.69 992.08"><defs><style>.cls-1{fill:#8c5924;}.cls-1,.cls-2,.cls-3{stroke:#000;stroke-miterlimit:10;}.cls-1,.cls-2{stroke-width:4px;}.cls-1,.cls-3{isolation:isolate;}.cls-2{fill:#fff;}.cls-3{fill:#e01c1c;stroke-width:3px;}</style></defs><rect class="cls-1" x="11.38" y="92.54" width="136" height="807"/><path class="cls-2" d="M166.88,100.74C166.88,48.39,132.23,6,89.5,6S12.12,48.39,12.12,100.74,166.88,153.09,166.88,100.74Z" transform="translate(-10.12 -3.96)"/><path class="cls-3" d="M166.88,103A587.06,587.06,0,0,1,90,108a586.57,586.57,0,0,1-76-5V86a489.09,489.09,0,0,0,75,6,489,489,0,0,0,77.88-6Z" transform="translate(-10.12 -3.96)"/><path class="cls-2" d="M13.06,899.26C13.06,951.6,47.7,994,90.43,994s77.38-42.43,77.38-94.78S13.06,846.91,13.06,899.26Z" transform="translate(-10.12 -3.96)"/><path class="cls-3" d="M13.06,897a586.79,586.79,0,0,1,152.88,0v17a489.75,489.75,0,0,0-152.88,0Z" transform="translate(-10.12 -3.96)"/></svg>