<svg id="Head_Ears" data-name="Head Ears" xmlns="http://www.w3.org/2000/svg" xmlns:xlink="http://www.w3.org/1999/xlink" viewBox="0 0 235.28 240.27"><defs><style>.cls-1{fill:#fff;}.cls-1,.cls-2,.cls-3,.cls-4{stroke:#000;stroke-miterlimit:10;stroke-width:4px;}.cls-2{fill:url(#New_Gradient_Swatch_1);}.cls-3{fill:url(#New_Gradient_Swatch_1-2);}.cls-4{fill:url(#New_Gradient_Swatch_1-3);}</style><linearGradient id="New_Gradient_Swatch_1" x1="141.94" y1="35.63" x2="227.93" y2="35.63" gradientTransform="translate(111.48 -137.79) rotate(56.14)" gradientUnits="userSpaceOnUse"><stop offset="0" stop-color="red"/><stop offset="0.14" stop-color="#ff7715"/><stop offset="0.29" stop-color="#ff0"/><stop offset="0.43" stop-color="lime"/><stop offset="0.57" stop-color="aqua"/><stop offset="0.71" stop-color="blue"/><stop offset="0.86" stop-color="#8c00aa"/></linearGradient><linearGradient id="New_Gradient_Swatch_1-2" x1="10.13" y1="35.64" x2="96.12" y2="35.64" gradientTransform="translate(28.87 -23.56) rotate(33.86)" xlink:href="#New_Gradient_Swatch_1"/><linearGradient id="New_Gradient_Swatch_1-3" x1="43.48" y1="138.05" x2="188.91" y2="138.05" gradientTransform="matrix(1, 0, 0, 1, 0, 0)" xlink:href="#New_Gradient_Swatch_1"/></defs><circle class="cls-1" cx="117.64" cy="122.63" r="115.64"/><ellipse class="cls-2" cx="184.93" cy="35.63" rx="27.07" ry="48.47" transform="translate(53.81 170.85) rotate(-56.14)"/><ellipse class="cls-3" cx="53.13" cy="35.64" rx="48.47" ry="27.07" transform="translate(-9.35 37.15) rotate(-33.86)"/><path class="cls-4" d="M188.87,112a61.78,61.78,0,0,1-6.79,25.91q-10.23,1.83-20.81,3.54-8.06,1.29-16,2.45-2.06,22.78-4.12,45.52a44.32,44.32,0,0,1-50.31,0Q89,166.34,87,143.26c-5.28-.44-10.81-1-16.57-1.84-7.15-1-13.89-2.21-20.2-3.54a62,62,0,0,1,0-56.44c20.16-1.59,41.88-2.57,65-2.59,23.81,0,46.15,1,66.83,2.59A62.19,62.19,0,0,1,188.87,112Z" transform="translate(1.5 1.51)"/></svg>