<svg id="Layer_1" data-name="Layer 1" xmlns="http://www.w3.org/2000/svg" xmlns:xlink="http://www.w3.org/1999/xlink" viewBox="0 0 202.74 1092.01"><defs><style>.cls-1,.cls-2,.cls-3,.cls-4,.cls-5,.cls-6,.cls-7,.cls-8,.cls-9{stroke:#000;stroke-miterlimit:10;stroke-width:4px;}.cls-1{fill:url(#linear-gradient);}.cls-2{fill:#fff;}.cls-3{fill:red;}.cls-4{fill:#ff7715;}.cls-5{fill:#ff0;}.cls-6{fill:lime;}.cls-7{fill:aqua;}.cls-8{fill:blue;}.cls-9{fill:#8c00aa;}</style><linearGradient id="linear-gradient" x1="100.89" y1="127.01" x2="101.85" y2="970.51" gradientUnits="userSpaceOnUse"><stop offset="0" stop-color="red"/><stop offset="0.14" stop-color="#ff7715"/><stop offset="0.29" stop-color="#ff0"/><stop offset="0.43" stop-color="lime"/><stop offset="0.57" stop-color="aqua"/><stop offset="0.71" stop-color="blue"/><stop offset="0.86" stop-color="#8c00aa"/></linearGradient></defs><rect class="cls-1" x="33.37" y="114.08" width="136" height="865.65"/><circle class="cls-2" cx="101.04" cy="105.01" r="30.34"/><ellipse class="cls-3" cx="101.04" cy="37.32" rx="22.64" ry="35.32"/><ellipse class="cls-4" cx="39.27" cy="14.99" rx="22.64" ry="35.32" transform="translate(14.34 82.36) rotate(-51.43)"/><ellipse class="cls-5" cx="25.52" cy="70.6" rx="35.32" ry="22.64" transform="translate(-3.79 53.46) rotate(-12.86)"/><ellipse class="cls-6" cx="59.42" cy="117.5" rx="35.32" ry="22.64" transform="translate(-60.95 166.07) rotate(-64.29)"/><ellipse class="cls-7" cx="120.09" cy="117.5" rx="22.64" ry="35.32" transform="translate(-27.81 109.76) rotate(-25.72)"/><ellipse class="cls-8" cx="154.65" cy="70.6" rx="22.64" ry="35.32" transform="translate(62.71 251.69) rotate(-77.15)"/><ellipse class="cls-9" cx="140.69" cy="14.99" rx="35.32" ry="22.64" transform="translate(32.64 137.02) rotate(-38.58)"/><circle class="cls-2" cx="101.04" cy="987.01" r="30.34"/><ellipse class="cls-3" cx="101.04" cy="1054.7" rx="22.64" ry="35.32"/><ellipse class="cls-4" cx="39.27" cy="985.01" rx="35.32" ry="22.64" transform="translate(-594.27 285.37) rotate(-38.57)"/><ellipse class="cls-5" cx="25.52" cy="929.4" rx="22.64" ry="35.32" transform="translate(-874.97 793.43) rotate(-77.14)"/><ellipse class="cls-6" cx="59.42" cy="882.5" rx="22.64" ry="35.32" transform="translate(-365.68 159.15) rotate(-25.71)"/><ellipse class="cls-7" cx="120.09" cy="882.5" rx="35.32" ry="22.64" transform="translate(-715.81 653.72) rotate(-64.28)"/><ellipse class="cls-8" cx="154.65" cy="929.4" rx="35.32" ry="22.64" transform="translate(-191.54 103.68) rotate(-12.85)"/><ellipse class="cls-9" cx="140.69" cy="985.01" rx="22.64" ry="35.32" transform="translate(-705.78 526.74) rotate(-51.42)"/></svg>