<svg id="Head_Ears" data-name="Head + Ears" xmlns="http://www.w3.org/2000/svg" viewBox="0 0 232.29 255.5"><defs><style>.cls-1,.cls-2{stroke:#000;stroke-miterlimit:10;}.cls-2{fill:#fff;}</style></defs><title>sideBlackHead</title><path class="cls-1" d="M259.59,230.71A115.66,115.66,0,0,1,37.28,275.45a43.63,43.63,0,0,0,5.63-3.28Q45,249.4,47,226.62q7.89-1.16,15.95-2.45,10.58-1.69,20.81-3.54a61.87,61.87,0,0,0,6.79-25.91,62.2,62.2,0,0,0-6.79-30.53q-15.89-1.26-33.05-1.95a115.65,115.65,0,0,1,208.85,68.47Z" transform="translate(-27.8 -91.35)"/><circle class="cls-2" cx="116.2" cy="48.97" r="48.47"/><path class="cls-2" d="M90.58,194.72a61.87,61.87,0,0,1-6.79,25.91Q73.56,222.46,63,224.17q-8.05,1.29-15.95,2.45Q45,249.41,42.91,272.17a43.63,43.63,0,0,1-5.63,3.28A115.78,115.78,0,0,1,50.74,162.24q17.16.67,33.05,1.95A62.2,62.2,0,0,1,90.58,194.72Z" transform="translate(-27.8 -91.35)"/></svg>