<?xml version="1.0" encoding="utf-8"?>
<!-- Generator: Adobe Illustrator 16.0.0, SVG Export Plug-In . SVG Version: 6.00 Build 0)  -->
<!DOCTYPE svg PUBLIC "-//W3C//DTD SVG 1.1//EN" "http://www.w3.org/Graphics/SVG/1.1/DTD/svg11.dtd">
<svg version="1.1" xmlns="http://www.w3.org/2000/svg" xmlns:xlink="http://www.w3.org/1999/xlink" x="0px" y="0px" width="288px"
	 height="560px" viewBox="0 0 288 560" enable-background="new 0 0 288 560" xml:space="preserve">
<g id="Layer_1" display="none">
	<g display="inline">
		<defs>
			<rect id="SVGID_1_" width="288" height="560"/>
		</defs>
		<clipPath id="SVGID_2_">
			<use xlink:href="#SVGID_1_"  overflow="visible"/>
		</clipPath>
		<path clip-path="url(#SVGID_2_)" fill="#FFFFFF" d="M271.859,279.785c10.746,63.857,27.923,165.924-31.902,219.325
			c-38.168,34.07-90.168,32.701-94.785,32.516c-45.82-1.846-80.713-26.861-99.693-47.853
			c-50.531-55.889-37.984-138.25-26.994-203.988c13.097-78.342,59.393-251.877,126.688-251.84
			C212.438,27.981,258.67,201.415,271.859,279.785"/>
		<path clip-path="url(#SVGID_2_)" fill="none" stroke="#000000" stroke-miterlimit="10" d="M271.859,279.785
			c10.746,63.857,27.923,165.924-31.902,219.325c-38.168,34.07-90.168,32.701-94.785,32.516
			c-45.82-1.846-80.713-26.861-99.693-47.853c-50.531-55.889-37.984-138.25-26.994-203.988
			c13.097-78.342,59.393-251.877,126.688-251.84C212.438,27.981,258.67,201.415,271.859,279.785z"/>
	</g>
</g>
<g id="Layer_2">
	<path fill="#FFFFFF" stroke="#000000" stroke-miterlimit="10" d="M280,382c0,139.544-102.127,150.667-136,150.667
		S8.611,515.569,8.611,376.025S110.127,27.333,144,27.333S280,242.456,280,382z"/>
</g>
</svg>
