<svg id="Layer_1" data-name="Layer 1" xmlns="http://www.w3.org/2000/svg" viewBox="0 0 621.97 286.03"><defs><style>.cls-1{fill:#fff;stroke:#000;stroke-miterlimit:10;stroke-width:4px;}</style></defs><path class="cls-1" d="M541.12,506a81,81,0,0,1-10.93,3.53,51.4,51.4,0,0,0,6.4-7.54Q538.72,504,541.12,506Z" transform="translate(-308.96 -260.13)"/><ellipse class="cls-1" cx="561.55" cy="245.26" rx="23.6" ry="17.42"/><circle class="cls-1" cx="613.23" cy="209.87" r="6.74"/><circle class="cls-1" cx="563.79" cy="194.14" r="8.99"/><circle class="cls-1" cx="507.05" cy="103.69" r="14.04"/><circle class="cls-1" cx="471.66" cy="82.9" r="6.74"/><ellipse class="cls-1" cx="524.75" cy="141.89" rx="17.7" ry="11.8"/><path class="cls-1" d="M846.91,470.56c0,40.65-72.94,73.6-162.92,73.6-61.57,0-115.17-15.43-142.87-38.2q-2.4-2-4.53-4a51.4,51.4,0,0,1-6.4,7.54C515.12,524.26,488.74,534,458.71,534c-27.12,0-51.27-8-66.79-20.4a79.37,79.37,0,0,1-23.77,3.55c-31.59,0-57.19-17.61-57.19-39.32,0-15.48,13-28.86,31.9-35.28A105.06,105.06,0,1,1,518.43,343.7a83.78,83.78,0,0,1,26,7c6.41-41.08,48.61-72.8,99.71-72.8,55.54,0,100.56,37.47,100.56,83.7a72.42,72.42,0,0,1-11.45,38.82C799.13,409.81,846.91,437.67,846.91,470.56Z" transform="translate(-308.96 -260.13)"/></svg>