<svg id="Layer_1" data-name="Layer 1" xmlns="http://www.w3.org/2000/svg" viewBox="0 0 561.3 265.8"><defs><style>.cls-1{fill:#fff;stroke:#000;stroke-miterlimit:10;stroke-width:4px;}</style></defs><path class="cls-1" d="M584,490.65c0,35.75-25.91,64.74-57.87,64.74a51.73,51.73,0,0,1-12.31-1.48,54.17,54.17,0,0,1-98.36-31.34c0-1.13,0-2.25.11-3.36A77.26,77.26,0,0,1,472.78,376c10.1-5.2,22.69-8.28,36.35-8.28,33.28,0,60.25,18.3,60.25,40.87,0,10-5.25,19.09-14,26.18C572.51,446,584,466.85,584,490.65Z" transform="translate(-369.63 -365.75)"/><path class="cls-1" d="M785.11,562.91c0,28.12-19.37,50.91-43.26,50.91a39,39,0,0,1-26.1-10.31c-5.48,15.09-21.9,26-41.31,26-23.89,0-43.26-16.6-43.26-37.08,0-12.88,7.66-24.22,19.28-30.87a39.51,39.51,0,0,1,65-39.07A39.09,39.09,0,0,1,741.85,512C765.74,512,785.11,534.79,785.11,562.91Z" transform="translate(-369.63 -365.75)"/><path class="cls-1" d="M806.46,421.9c0,9.81-12,17.76-26.88,17.76-12.77,0-23.47-5.89-26.19-13.78-.23,0-.46,0-.69,0-13.55,0-24.54-9.75-24.54-21.77,0-9.29,6.57-17.23,15.81-20.35,4.47-6.75,15.55-11.53,28.5-11.53,16.91,0,30.62,8.14,30.62,18.19,0,6.23-5.28,11.73-13.34,15C799.56,408.1,806.46,414.46,806.46,421.9Z" transform="translate(-369.63 -365.75)"/><path class="cls-1" d="M645.73,424.48a8.18,8.18,0,0,1,3.43,6.5c0,4.8-4.55,8.68-10.16,8.68s-10.15-3.88-10.15-8.68a7.43,7.43,0,0,1,.14-1.42,5.48,5.48,0,0,1-3.42-4.8c0-3.1,3.15-5.6,7-5.6h0c.24-2.84,4.59-5.1,9.93-5.1,5.5,0,10,2.39,10,5.35C652.52,421.77,649.68,423.77,645.73,424.48Z" transform="translate(-369.63 -365.75)"/><path class="cls-1" d="M928.93,490.2c0,12-14.59,21.8-32.58,21.8-14.54,0-26.85-6.37-31-15.16a27.66,27.66,0,0,1-8.29,1.25c-13,0-23.59-8.8-23.59-19.66S844,458.76,857,458.76a27.76,27.76,0,0,1,7,.87c1.66-11.26,13.1-20,26.95-20,15,0,27.17,10.22,27.17,22.83a19.78,19.78,0,0,1-2.75,10C923.57,476.45,928.93,482.9,928.93,490.2Z" transform="translate(-369.63 -365.75)"/></svg>