<svg xmlns="http://www.w3.org/2000/svg" xmlns:xlink="http://www.w3.org/1999/xlink" viewBox="0 0 1284.83 1053.83"><defs><style>.cls-1{fill:none;}.cls-1,.cls-10{mix-blend-mode:lighten;}.cls-2{isolation:isolate;}.cls-3{fill:#e8a986;}.cls-4{fill:#f7bfbe;}.cls-5{fill:#e68888;}.cls-6{fill:#f4b1da;}.cls-7{fill:#cc89e6;}.cls-8{opacity:0.5;mix-blend-mode:luminosity;}.cls-9{clip-path:url(#clip-path);}</style><clipPath id="clip-path"><rect class="cls-1" x="119.97" y="136.86" width="377.23" height="380.4"/></clipPath></defs><g class="cls-2"><g id="Layer_2" data-name="Layer 2"><g id="rainbow"><g id="background"><path class="cls-3" d="M.83,1030.79l1284-.28h0c-81.95-295.3-354.41-498.23-656.57-491.64-291.77,6.35-548.5,207-627.43,491.92Z"/><path class="cls-4" d="M13.1,1030.53C95.55,742.37,349.3,536.35,647.67,538.88c293.58,2.5,533.59,208.53,615.51,491.63.47,1.63,20.36-1.63,20.82,0V783.2C1154.66,542.26,901.6,396.92,629.83,401.46,366.59,405.85,125.13,549.93,0,783.2v247.33"/><path class="cls-5" d="M0,783.18c127.49-234.25,373.18-381,639.58-381.84,268.12-.89,516.11,146.08,644.42,381.84V542.91c-10.72-17.81-227.27-362.61-642.82-362.15C226.69,181.21,11,525.53,0,543.72Z"/><path class="cls-6" d="M0,543.72c9.4-15.46,234.25-370.87,656.57-362.83,403.39,7.67,613.92,339.84,627.43,362v-282C1239.13,217.37,1001.05-4.8,629.88.08,274.2,4.75,47.69,214.62,0,260.91Z"/><path class="cls-7" d="M0,260.91C47.69,214.62,274.2,4.75,629.88.08,1001.05-4.8,1239.13,217.37,1284,260.91V4.34H0"/><line class="cls-4" x1="1263.18" y1="1030.51" x2="1284" y2="1030.98"/><g id="moon" class="cls-8"><g class="cls-9"><image class="cls-10" width="2380" height="2400" transform="translate(119.97 136.86) scale(0.16)" xlink:href="C:%5CUsers%5CPeter%20Woodsum%5CDownloads%5Cfull-moon-png-black-and-white-this-free-icons-png-design-of-full-moon-2380.png"/></g></g></g></g></g></g></svg>