<svg xmlns="http://www.w3.org/2000/svg" viewBox="0 0 1284.12 1028.69"><defs><style>.cls-1{fill:#ce9bc6;}.cls-1,.cls-2,.cls-3{stroke:#000;stroke-miterlimit:10;}.cls-1,.cls-2{stroke-width:4px;}.cls-2{fill:none;}.cls-3{fill:#48af56;stroke-width:0.25px;}</style></defs><g id="Layer_2" data-name="Layer 2"><g id="Layer_1-2" data-name="Layer 1"><g id="rainbow"><g id="foreground"><path class="cls-1" d="M18.62,1026.4H1261.43a34,34,0,0,0,5.9-18.5c0-34.2-58-61.9-129.6-61.9-35.5,0-69.5,7-94,19.3a277.06,277.06,0,0,0-101.9.3c-34.6-18.7-91.4-31-155.6-31-43.1,0-82.9,5.5-114.9,14.8-58.5-18.5-133.9-19.8-195.1-3.3-25-2.3-50.4-3.5-75.9-3.4-57.8,0-110.8,5.7-151.6,15.2-23-7.7-50.3-11.9-78.4-12-82.11,0-148.91,35.8-151.71,80.5-.1,1,0-1,0,0"/><path class="cls-1" d="M1154.32,1026.4a29.38,29.38,0,0,0-7.6-7.8c6.81-6,10.4-12.8,10.4-19.6,0-25.4-48.9-46-109.19-46-33.8,0-64.1,6.5-84.1,16.7a90.81,90.81,0,0,0-14.9-1.2c-34.9,0-63.1,19-63.1,42.4a29,29,0,0,0,4.5,15.7"/><path class="cls-1" d="M950,1026.4c-6.3-4.8-15.6-9-27.2-12.2,4.59-6.5,7-13.3,7-20.2,0-25-29.41-45.2-65.71-45.2-11.5.1-22.59,2-31.5,5.5-17.7-3.5-39.2-5.5-62.2-5.5-60.7,0-110,14.1-110,31.6,0,12.3,24.5,22.9,60.2,28.2a13.62,13.62,0,0,0-.4,3.4c0,4,1.3,9.1,3.9,14.4"/><path class="cls-1" d="M428.33,1026.7c4.7-3.4,7.4-7.3,7.4-11.5a8.43,8.43,0,0,0-.71-3.5c25.8-2.8,44.21-13.8,44.21-26.4,0-15-25.4-27.1-56.71-27.1A114.13,114.13,0,0,0,402,960c-12.1-4.4-28.79-7.1-47.1-7.1-37.3,0-67.6,11.3-67.6,25.3,0,10,15.4,18.6,37.8,22.7-7.7,3.9-12.1,9-12.2,14.4,0,4.1,2.7,8.1,7.4,11.5"/><line class="cls-2" x1="319.92" y1="1026.4" x2="1284.12" y2="1026.4"/><line class="cls-3" x1="0.12" x2="0.73" y2="1026.4"/></g></g></g></g></svg>