<svg xmlns="http://www.w3.org/2000/svg" viewBox="0 0 1285 1027"><defs><style>.cls-1{fill:#bf0a00;}.cls-1,.cls-3{stroke:#000;}.cls-1,.cls-2,.cls-3{stroke-miterlimit:10;}.cls-2{fill:#563a30;stroke:#512823;}.cls-3{fill:#48271e;}</style></defs><g id="Layer_2" data-name="Layer 2"><g id="hell"><g id="layer1"><path id="Lava" class="cls-1" d="M1.2,630.31c9.9,0,1273.4,27.51,1283.3,27.51V1026.5H.5C.5,994.8,1.2,662,1.2,630.31Z"/></g><g id="layer2"><polygon class="cls-2" points="1284.3 735.4 1245.19 751.6 1036.3 751.95 881.86 737.73 626.75 716 557.2 715.85 385.69 750.44 333.28 752.7 222.12 742.69 102.11 730.39 73.91 731.08 45.34 741.71 23.11 748.4 0.5 773.7 1.4 0.5 1283.7 0.5 1284.3 735.4"/></g><g id="layer3"><path class="cls-3" d="M56.9,41.9c-1.2,17.4,1.7,29.8,3.9,47,7.1,55.4,47.6,102.6,52.8,158.2.7,7.3.8,14.9,3.3,21.8s8.3,13.3,15.6,14c7.7-41.1,15.4-82.4,30.6-121.3,2.3-5.8,4.7-11.7,5.3-17.9.4-4.5-.2-9,.2-13.5,1-12.1,9-22.4,14.9-33a113.84,113.84,0,0,0,14.7-55.9c-32.5.2-64,1.7-96.5,1.6-9.9,0-15.6-.3-25.5-.5C67.6,42.5,63.9,42.7,56.9,41.9Z"/><path class="cls-3" d="M1012.6,41.7c10.3,18.8,20.8,38.2,23.9,59.4,1,6.8,1.2,13.8,2.4,20.6,2.1,11.7,7,23,7.7,34.9,1.6,25.5-16.2,51.4-7.3,75.3,2.3,6.3,6.3,11.8,9,17.9,11.9,26.8-2.6,57-12.6,84.6-2.1,5.7-3.7,12.8.6,17.1,5.5,5.7,15,1.1,21.4-3.6,7.7-5.7,15.4-11.3,23.1-17,17.7-13,36.1-26.8,45.4-46.7,9-19.3,8.6-42.4,19.8-60.4,8.8-14,24-23.8,30.3-39.1,5-12.1,3.6-25.7,6.1-38.5,2.7-13.4,9.5-25.5,16.5-37.2q22.5-38.25,47-75.3"/></g></g></g></svg>