<svg xmlns="http://www.w3.org/2000/svg" viewBox="0 0 302.03 84.37"><defs><style>.cls-1{fill:#791314;stroke:#000;stroke-miterlimit:10;}</style></defs><g id="Layer_2" data-name="Layer 2"><g id="hell"><g id="moving"><path id="lava2" class="cls-1" d="M100.82,3.62c53.45-11.3,107.35,9.6,159.05,38.6,4.35,2.4,8.7,5,13.05,7.5,9.45,5.5,18.95,10.9,28.4,16.4-9.4,13.6-21.4,18.3-33,17.7s-22.95-6-34.3-10.8a433.15,433.15,0,0,0-119.1-32.7,397.16,397.16,0,0,0-60.65-2.9c-10.1.3-20.2.9-30.3,2-6.9.7-16.95,5.9-23-.4C34.22,28.12,67.27,10.72,100.82,3.62Z"/></g></g></g></svg>