<svg id="Layer_1" data-name="Layer 1" xmlns="http://www.w3.org/2000/svg" viewBox="0 0 159.69 1063.8"><defs><style>.cls-1{fill:#8c5924;}.cls-1,.cls-2,.cls-3{stroke:#000;stroke-miterlimit:10;}.cls-1,.cls-2{stroke-width:4px;}.cls-2{fill:#fff;}.cls-3{fill:#e01c1c;stroke-width:3px;}</style></defs><rect class="cls-1" x="11.38" y="99.08" width="136" height="865.65"/><path class="cls-2" d="M166.92,71.72c0-56.15-34.66-101.62-77.38-101.62S12.16,15.57,12.16,71.72,166.92,127.88,166.92,71.72Z" transform="translate(-10.16 31.9)"/><path class="cls-3" d="M166.92,74.15A548.2,548.2,0,0,1,90,79.51a547.64,547.64,0,0,1-76-5.36V55.91a456.77,456.77,0,0,0,75,6.44,456.19,456.19,0,0,0,77.88-6.44Z" transform="translate(-10.16 31.9)"/><path class="cls-2" d="M13.1,928.28c0,56.14,34.64,101.62,77.37,101.62s77.37-45.51,77.37-101.67S13.1,872.12,13.1,928.28Z" transform="translate(-10.16 31.9)"/><path class="cls-3" d="M13.1,925.85a547.49,547.49,0,0,1,152.88,0v18.24a456.76,456.76,0,0,0-152.89,0Z" transform="translate(-10.16 31.9)"/></svg>