<svg id="Layer_1" data-name="Layer 1" xmlns="http://www.w3.org/2000/svg" viewBox="0 0 438 1185"><defs><style>.cls-1{fill:#6e9a42;isolation:isolate;}.cls-1,.cls-2,.cls-3{stroke:#000;stroke-miterlimit:10;stroke-width:4px;}.cls-2{fill:#e2dbac;}.cls-3{fill:#aec957;}</style></defs><rect class="cls-1" x="150.6" y="161.19" width="136" height="865.24"/><rect class="cls-2" x="150.6" y="585.82" width="136" height="14"/><rect class="cls-2" x="150.6" y="782.81" width="136" height="14"/><rect class="cls-2" x="151.07" y="372.67" width="136" height="14"/><path class="cls-3" d="M-64.72,25.47c-19,9.8-35.46,15.59-36.83,12.93s12.89-12.75,31.86-22.54c2-1,4-2,5.94-3-4.35,1.27-9,2.54-13.8,3.78-26.6,6.85-48.76,10.07-49.5,7.2s20.23-10.74,46.83-17.58C-73.7,4.61-67.44,3.15-61.7,1.94c14.43,1.53,25.55.91,25.92-1.66.09-.66-.53-1.39-1.74-2.15,4.1-.26,6.56,0,6.79,1,.19.75-1.11,1.85-3.63,3.2.79,0,1.3.25,1.5.64C-31.49,5.58-45.76,15.68-64.72,25.47Z" transform="translate(129.07 93.82)"/><path class="cls-3" d="M21.34,75.38c-.87.39-4.55-3.52-10-10.13.32,9.12-.61,24.42-2.74,41.63C5.24,134.39.07,156.4-2.89,156s-2.62-23,.78-50.48C.48,84.62,4.09,66.88,7,59.75,2.51,54.11-2.68,47.29-8.24,39.86-9.34,46.85-16.3,64.3-26.1,84c-12.33,24.83-24.5,43.88-27.18,42.55s5.16-22.54,17.49-47.36C-31.71,71-27.65,63.43-23.94,57c-4.51,5-9.74,10.53-15.42,16.21C-59,92.82-76.56,107-78.68,104.89S-66.61,85.17-47,65.57C-32.19,50.75-18.5,39-11.8,35.1l1.58,2.13,1,1.33c.35-.58.66-1.11.9-1.59.82-1.58,1.06-2.64.63-3.07s-1.95-.06-4.11,1.2c-7.11-9.56-14.66-19.89-21.9-29.87C-23.12,14.68,7.49,43,19.51,69.46,20.69,72.06,22,75.07,21.34,75.38Z" transform="translate(129.07 93.82)"/><path class="cls-3" d="M-35.78.28c-.37,2.57-11.49,3.19-25.92,1.66A185.88,185.88,0,0,1-37.52-1.87C-36.31-1.11-35.69-.38-35.78.28Z" transform="translate(129.07 93.82)"/><path class="cls-3" d="M-35.78.28c-.37,2.57-11.49,3.19-25.92,1.66-2-.21-4.11-.47-6.25-.77C-85.3-1.27-99-5.62-98.62-8.56s14.81-3.33,32.16-.89C-53-7.56-41.71-4.51-37.52-1.87-36.31-1.11-35.69-.38-35.78.28Z" transform="translate(129.07 93.82)"/><path class="cls-3" d="M-8.32,37c-.24.48-.55,1-.9,1.59l-1-1.33c.7-.53,1.24-.73,1.61-.55A.73.73,0,0,1-8.32,37Z" transform="translate(129.07 93.82)"/><path class="cls-3" d="M271.68,134.34c-1.92,2.57-27.44-13.25-57-35.33-21.14-15.8-38.61-30.52-46.15-38.56a69.92,69.92,0,0,1-4,6.43c-.29.41-6.92,9.79-7.94,8.82s3.14-10.9,7.93-20.91c.09-.19.18-.38.28-.57,2.87-6,6-11.89,8.35-15.82-1.12-.24-1.78-.64-1.93-1.19-.82-3.11,15-10,35.26-15.38s37.42-7.23,38.25-4.13-15,10-35.26,15.37c-13.63,3.62-25.83,5.64-32.63,5.64-.16.8-.36,1.68-.6,2.62,7.78-1,24-.35,42.63,2,25.84,3.19,46.47,8.36,46.08,11.55s-21.67,3.18-47.51,0c-19.3-2.39-35.69-5.88-42.59-8.82-.14.42-.28.85-.44,1.29,8.39,1.55,26.73,8.38,47.41,17.9,27.48,12.65,48.67,25.28,47.33,28.19s-24.71-5-52.19-17.63C196.55,66.35,179.6,57,172.79,51.56c-.59,1.45-1.25,2.94-2,4.44,9.61,4.66,29.13,17.49,50.82,33.69C251.2,111.78,273.6,131.77,271.68,134.34Z" transform="translate(129.07 93.82)"/><path class="cls-3" d="M164.8,54.22c-.1.19-.19.38-.28.57a.64.64,0,0,1,.11-.43A.39.39,0,0,1,164.8,54.22Z" transform="translate(129.07 93.82)"/><rect class="cls-2" x="150.6" y="159.31" width="136" height="14"/><path class="cls-3" d="M-8.32,37c-.24.48-.55,1-.9,1.59l-1-1.33L-11.8,35.1c2.16-1.26,3.6-1.71,4.11-1.2S-7.5,35.39-8.32,37Z" transform="translate(129.07 93.82)"/><path class="cls-3" d="M-8.32,37c-.24.48-.55,1-.9,1.59l-1-1.33L-11.8,35.1c2.16-1.26,3.6-1.71,4.11-1.2S-7.5,35.39-8.32,37Z" transform="translate(129.07 93.82)"/><path class="cls-3" d="M513,28" transform="translate(129.07 93.82)"/><path class="cls-1" d="M158,38.82V65.5H22V-90.23h7C56.35-76.89,150.8,17.07,158,38.82Z" transform="translate(129.07 93.82)"/><path class="cls-2" d="M156,42.56h0c-4.59,5.63-46.29-18.63-75-45.18C49.48-31.67,25.9-70.53,22.44-85.51c-.69-3-.58-5,.43-5.86s3.33-.43,6.47,1.14C56.16-76.89,148.92,17.07,156,38.82,156.58,40.55,156.61,41.81,156,42.56Z" transform="translate(129.07 93.82)"/><rect class="cls-2" x="150.6" y="1012.32" width="136" height="14"/><ellipse class="cls-3" cx="258.75" cy="988.13" rx="49.73" ry="5.36" transform="translate(-109.05 189.49) rotate(-14.43)"/><ellipse class="cls-3" cx="-28.11" cy="972.16" rx="38.03" ry="5.81" transform="matrix(0.97, -0.26, 0.26, 0.97, -121.24, 119.13)"/><ellipse class="cls-3" cx="247.07" cy="1003.75" rx="5.36" ry="31.73" transform="translate(-652.23 1202.49) rotate(-82)"/><ellipse class="cls-3" cx="210.81" cy="917.98" rx="50.2" ry="5.41" transform="translate(-576.04 792.22) rotate(-63.59)"/><ellipse class="cls-3" cx="-39.52" cy="929.14" rx="5.81" ry="54.78" transform="translate(-737.88 598.42) rotate(-65.27)"/><ellipse class="cls-3" cx="-38.29" cy="905.26" rx="5.81" ry="66.81" transform="translate(-611.51 426.59) rotate(-53.24)"/><ellipse class="cls-3" cx="247.07" cy="978.95" rx="38.66" ry="5.41" transform="translate(-292.61 316.36) rotate(-27.32)"/><ellipse class="cls-3" cx="-38.29" cy="950.56" rx="5.81" ry="47.15" transform="translate(-847.91 889.78) rotate(-82.95)"/><ellipse class="cls-3" cx="223.05" cy="930.21" rx="50.2" ry="5.41" transform="translate(-463.36 523.99) rotate(-45)"/><ellipse class="cls-3" cx="176.6" cy="893.4" rx="50.2" ry="5.41" transform="translate(-602.64 1052.89) rotate(-82.95)"/><path class="cls-3" d="M213.56,994.38c-10.57-9.45-41.19-37.74-53.21-64.23-1.18-2.6-2.53-5.61-1.82-5.92C161.16,923.07,189.15,960.72,213.56,994.38Z" transform="translate(129.07 93.82)"/><path class="cls-3" d="M2.83,965.87c-1.46-.92,2.54-19,12.51-33.14.29-.42,6.92-9.79,7.94-8.82C25.28,925.82,5.19,967.38,2.83,965.87Z" transform="translate(129.07 93.82)"/><path class="cls-1" d="M20.84,960V933.32h136v155.73h-7C122.51,1075.71,28.06,981.74,20.84,960Z" transform="translate(129.07 93.82)"/><path class="cls-2" d="M21.52,955.26v0c4.55-5.6,46,18.57,74.55,45,31.28,29,54.71,67.69,58.15,82.62.68,3,.58,5-.43,5.84s-3.3.43-6.42-1.13C120.73,1074.31,28.57,980.66,21.52,959,21,957.26,20.93,956,21.52,955.26Z" transform="translate(129.07 93.82)"/></svg>