<svg id="Layer_1" data-name="Layer 1" xmlns="http://www.w3.org/2000/svg" viewBox="0 0 275.39 509.33"><defs><style>.cls-1,.cls-2{stroke:#000;stroke-miterlimit:10;stroke-width:4px;}.cls-2{fill:#fff;}</style></defs><g id="Layer_2" data-name="Layer 2"><path class="cls-1" d="M280,382c0,139.54-102.13,150.67-136,150.67S8.61,515.57,8.61,376,110.13,27.33,144,27.33,280,242.46,280,382Z" transform="translate(-6.61 -25.33)"/></g><path class="cls-2" d="M215.32,130.76C195.71,121.67,183.87,144.15,144,144c-40.34-.16-52.09-23.27-71.75-14.26C56,137.17,14.38,272.15,20.54,281.22c12.15,17.86,51.72-6.33,124-5.22,70.58,1.08,107.93,25.32,120.5,8C271.19,275.47,230.06,137.6,215.32,130.76Z" transform="translate(-6.61 -25.33)"/></svg>