<svg id="Head_Ears" data-name="Head Ears" xmlns="http://www.w3.org/2000/svg" viewBox="0 0 235.28 244.75"><defs><style>.cls-1,.cls-4{fill:#fff;}.cls-1,.cls-2,.cls-3,.cls-4{stroke:#000;}.cls-1,.cls-3{stroke-miterlimit:10;}.cls-1{stroke-width:4px;}.cls-2,.cls-4{stroke-miterlimit:10;}</style></defs><circle class="cls-1" cx="117.64" cy="127.11" r="115.64"/><path class="cls-2" d="M220.68-1.62c14.8,12.72-1,53.94-11,54.42-4.62.22-5.31-8.33-17.38-19.07C179.07,22,169.08,22.6,168.58,17.55,167.57,7.41,205.9-14.32,220.68-1.62Z" transform="translate(1.5 5.99)"/><path class="cls-2" d="M10.61-1.62c-14.8,12.72,1,53.94,11,54.42C26.24,53,26.93,44.47,39,33.73,52.22,22,62.21,22.6,62.71,17.55,63.72,7.41,25.39-14.32,10.61-1.62Z" transform="translate(1.5 5.99)"/><path class="cls-3" d="M146.05,167.48c-3.43,7.14-13.37,3.6-21.44,12.5-6.52,7.19-5.72,15.74-8.7,15.78-3.24.05-2.52-10.12-10.29-18-8-8.09-16.29-5.07-19.4-11.68-3-6.43,1.19-17.09,8-20.26,6-2.8,9.26,2.51,21.91,3.13,12.92.64,16.75-4.56,22.83-1.13C145.23,151.36,149,161.36,146.05,167.48Z" transform="translate(1.5 5.99)"/><path class="cls-2" d="M191,129.84a14.44,14.44,0,0,1-20.25,2.72,119.13,119.13,0,0,1-25.68-25.46,11.58,11.58,0,0,1-2.86-8.45c.38-3.76,2.76-6.08,4.18-7.48a18.24,18.24,0,0,1,11.3-4.88A15.57,15.57,0,0,1,166,89.4c2.16,1.72,2.88,3.4,4.41,5.77a46.69,46.69,0,0,0,10.08,10.68c6.2,4.6,9.59,3.58,12.38,7.77a13.74,13.74,0,0,1,2.07,8.06A17.63,17.63,0,0,1,191,129.84Z" transform="translate(1.5 5.99)"/><circle class="cls-4" cx="158.65" cy="107.93" r="8.96"/><circle class="cls-2" cx="156.24" cy="109.85" r="4.27"/><path class="cls-2" d="M40.27,129.84A15.34,15.34,0,0,0,49,135.26a15.33,15.33,0,0,0,11.53-2.7A119.48,119.48,0,0,0,73.63,121.5,119.51,119.51,0,0,0,86.2,107.1a11.58,11.58,0,0,0,2.86-8.45c-.38-3.76-2.76-6.08-4.18-7.48a18.24,18.24,0,0,0-11.3-4.88A15.57,15.57,0,0,0,65.3,89.4c-2.17,1.72-2.88,3.4-4.41,5.77a46.69,46.69,0,0,1-10.08,10.68c-6.2,4.6-9.59,3.58-12.38,7.77a13.74,13.74,0,0,0-2.07,8.06A17.63,17.63,0,0,0,40.27,129.84Z" transform="translate(1.5 5.99)"/><circle class="cls-4" cx="75.64" cy="107.93" r="8.96"/><circle class="cls-2" cx="78.05" cy="109.85" r="4.27"/></svg>